<svg width="24" height="24" viewBox="0 0 24 24" fill="none" xmlns="http://www.w3.org/2000/svg">
<g clip-path="url(#clip0_2_141)">
<path d="M8.875 19.875V8.66016H11.4062C11.7578 8.66016 12.0742 8.44922 12.1797 8.13281C12.3203 7.81641 12.2852 7.46484 12.0391 7.21875L8.38281 3.28125C8.06641 2.92969 7.46875 2.92969 7.15234 3.28125L3.49609 7.21875C3.25 7.46484 3.21484 7.81641 3.32031 8.13281C3.46094 8.44922 3.77734 8.66016 4.09375 8.66016H6.625L6.625 19.875C6.625 20.5078 7.15234 21 7.75 21C8.3125 21 8.875 20.5078 8.875 19.875ZM15.625 4.125L15.625 15.375H13.0938C12.7422 15.375 12.4258 15.5859 12.3203 15.9023C12.2148 16.2188 12.25 16.5703 12.4961 16.8164L16.1523 20.7539C16.4688 21.1055 17.0664 21.1055 17.3828 20.7539L21.0391 16.8164C21.2852 16.5703 21.3203 16.2188 21.1797 15.9023C21.0742 15.5859 20.7578 15.375 20.4062 15.375H17.875V4.125C17.875 3.52734 17.3828 3 16.75 3C16.1523 3 15.625 3.52734 15.625 4.125Z" fill="#9A9FBF"/>
</g>
<defs>
<clipPath id="clip0_2_141">
<rect width="24" height="24" fill="white"/>
</clipPath>
</defs>
</svg>
